<?xml version="1.0" encoding="UTF-8"?>
<!DOCTYPE svg PUBLIC "-//W3C//DTD SVG 1.1//EN" "http://www.w3.org/Graphics/SVG/1.1/DTD/svg11.dtd">
<svg xmlns="http://www.w3.org/2000/svg" version="1.1" width="512px" height="512px" style="shape-rendering:geometricPrecision; text-rendering:geometricPrecision; image-rendering:optimizeQuality; fill-rule:evenodd; clip-rule:evenodd" xmlns:xlink="http://www.w3.org/1999/xlink">
<g><path style="opacity:0.987" fill="#ae7f65" d="M 126.5,-0.5 C 130.5,-0.5 134.5,-0.5 138.5,-0.5C 100.148,169.962 61.4818,340.295 22.5,510.5C 8.55124,505.963 2.71791,496.296 5,481.5C 39.6667,326.833 74.3333,172.167 109,17.5C 111.683,8.318 117.517,2.318 126.5,-0.5 Z"/></g>
<g><path style="opacity:1" fill="#7f5b53" d="M 138.5,-0.5 C 138.833,-0.5 139.167,-0.5 139.5,-0.5C 155.955,6.76358 161.289,19.0969 155.5,36.5C 150.537,56.2435 146.204,76.2435 142.5,96.5C 137.292,115.865 132.958,135.531 129.5,155.5C 128.4,157.277 127.566,159.277 127,161.5C 123.059,179.153 119.226,196.82 115.5,214.5C 111.297,233.51 106.964,252.51 102.5,271.5C 102.685,272.584 103.018,273.584 103.5,274.5C 102.883,274.611 102.383,274.944 102,275.5C 85.6667,348.5 69.3333,421.5 53,494.5C 49.9809,502.684 44.4809,508.351 36.5,511.5C 31.8333,511.5 27.1667,511.5 22.5,511.5C 22.5,511.167 22.5,510.833 22.5,510.5C 61.4818,340.295 100.148,169.962 138.5,-0.5 Z"/></g>
<g><path style="opacity:0.997" fill="#e4e5e6" d="M 155.5,36.5 C 169.34,49.7529 185.34,59.4195 203.5,65.5C 202.069,65.8807 201.236,66.8807 201,68.5C 197.366,86.6438 193.2,104.644 188.5,122.5C 187.277,123.614 185.944,123.781 184.5,123C 168.681,116.931 154.681,108.097 142.5,96.5C 146.204,76.2435 150.537,56.2435 155.5,36.5 Z"/></g>
<g><path style="opacity:1" fill="#2e313a" d="M 453.5,51.5 C 474.591,57.754 492.091,69.4207 506,86.5C 506.667,89.5 506.667,92.5 506,95.5C 502.1,112.833 498.267,130.167 494.5,147.5C 480.066,130.357 462.233,118.024 441,110.5C 444.078,90.5321 448.245,70.8654 453.5,51.5 Z"/></g>
<g><path style="opacity:0.998" fill="#e4e5e6" d="M 327.5,57.5 C 322.953,77.4491 318.619,97.4491 314.5,117.5C 293.397,122.462 272.064,126.128 250.5,128.5C 250.5,127.833 250.5,127.167 250.5,126.5C 254.502,107.496 258.502,88.4956 262.5,69.5C 284.406,66.6827 306.073,62.6827 327.5,57.5 Z"/></g>
<g><path style="opacity:1" fill="#2d3039" d="M 203.5,65.5 C 222.935,70.1857 242.602,71.519 262.5,69.5C 258.502,88.4956 254.502,107.496 250.5,126.5C 248.639,127.842 246.639,128.842 244.5,129.5C 234.161,129.666 223.828,129.5 213.5,129C 205.317,128.454 197.317,126.954 189.5,124.5C 183.985,143.564 179.318,162.897 175.5,182.5C 157.721,177.612 142.387,168.612 129.5,155.5C 132.958,135.531 137.292,115.865 142.5,96.5C 154.681,108.097 168.681,116.931 184.5,123C 185.944,123.781 187.277,123.614 188.5,122.5C 193.2,104.644 197.366,86.6438 201,68.5C 201.236,66.8807 202.069,65.8807 203.5,65.5 Z"/></g>
<g><path style="opacity:1" fill="#2d3039" d="M 392.5,46.5 C 387.382,65.9726 383.049,85.6392 379.5,105.5C 399.845,103.13 419.845,104.796 439.5,110.5C 435.513,130.292 431.013,149.958 426,169.5C 406.542,163.78 386.709,162.114 366.5,164.5C 370.283,145.143 374.283,125.81 378.5,106.5C 356.834,108.309 335.501,111.976 314.5,117.5C 318.619,97.4491 322.953,77.4491 327.5,57.5C 348.961,52.6454 370.627,48.9787 392.5,46.5 Z"/></g>
<g><path style="opacity:1" fill="#797c82" d="M 250.5,126.5 C 250.5,127.167 250.5,127.833 250.5,128.5C 250.5,129.167 250.167,129.5 249.5,129.5C 247.833,129.5 246.167,129.5 244.5,129.5C 246.639,128.842 248.639,127.842 250.5,126.5 Z"/></g>
<g><path style="opacity:1" fill="#e4e5e6" d="M 453.5,51.5 C 448.245,70.8654 444.078,90.5321 441,110.5C 462.233,118.024 480.066,130.357 494.5,147.5C 489.784,167.079 485.451,186.745 481.5,206.5C 468.474,190.991 452.474,179.491 433.5,172C 431.26,171.023 428.927,170.523 426.5,170.5C 422.433,189.742 418.099,208.909 413.5,228C 402.292,226.014 390.959,224.347 379.5,223C 371.818,222.459 364.152,222.626 356.5,223.5C 355.167,223.5 353.833,223.5 352.5,223.5C 356.45,204.417 360.783,185.417 365.5,166.5C 359.841,165.589 354.174,165.755 348.5,167C 332.814,169.836 317.147,172.67 301.5,175.5C 305.208,156.005 309.541,136.672 314.5,117.5C 335.501,111.976 356.834,108.309 378.5,106.5C 374.283,125.81 370.283,145.143 366.5,164.5C 386.709,162.114 406.542,163.78 426,169.5C 431.013,149.958 435.513,130.292 439.5,110.5C 419.845,104.796 399.845,103.13 379.5,105.5C 383.049,85.6392 387.382,65.9726 392.5,46.5C 404.133,45.3972 415.8,45.2305 427.5,46C 436.545,46.6685 445.212,48.5019 453.5,51.5 Z"/></g>
<g><path style="opacity:1" fill="#2d3039" d="M 314.5,117.5 C 309.541,136.672 305.208,156.005 301.5,175.5C 317.147,172.67 332.814,169.836 348.5,167C 354.174,165.755 359.841,165.589 365.5,166.5C 360.783,185.417 356.45,204.417 352.5,223.5C 351.508,223.328 350.842,223.662 350.5,224.5C 329.654,226.391 309.154,230.057 289,235.5C 288.333,233.5 288.333,231.5 289,229.5C 293.05,211.863 296.883,194.196 300.5,176.5C 279.432,181.634 258.099,185.301 236.5,187.5C 240.618,168.128 244.951,148.795 249.5,129.5C 250.167,129.5 250.5,129.167 250.5,128.5C 272.064,126.128 293.397,122.462 314.5,117.5 Z"/></g>
<g><path style="opacity:1" fill="#2d3039" d="M 115.5,214.5 C 128.478,227.246 143.645,236.58 161,242.5C 157.685,262.403 153.519,282.069 148.5,301.5C 131.114,296.314 116.114,287.314 103.5,274.5C 103.018,273.584 102.685,272.584 102.5,271.5C 106.964,252.51 111.297,233.51 115.5,214.5 Z"/></g>
<g><path style="opacity:1" fill="#77797f" d="M 350.5,224.5 C 350.842,223.662 351.508,223.328 352.5,223.5C 353.833,223.5 355.167,223.5 356.5,223.5C 354.706,224.233 353.039,225.233 351.5,226.5C 351.672,225.508 351.338,224.842 350.5,224.5 Z"/></g>
<g><path style="opacity:1" fill="#2d3039" d="M 481.5,206.5 C 476.819,226.255 472.152,245.922 467.5,265.5C 453.699,248.214 436.199,236.214 415,229.5C 414.228,229.645 413.561,229.978 413,230.5C 408.915,249.727 404.415,268.727 399.5,287.5C 379.73,282.74 359.73,281.406 339.5,283.5C 343.392,264.487 347.392,245.487 351.5,226.5C 353.039,225.233 354.706,224.233 356.5,223.5C 364.152,222.626 371.818,222.459 379.5,223C 390.959,224.347 402.292,226.014 413.5,228C 418.099,208.909 422.433,189.742 426.5,170.5C 428.927,170.523 431.26,171.023 433.5,172C 452.474,179.491 468.474,190.991 481.5,206.5 Z"/></g>
<g><path style="opacity:0.998" fill="#e4e5e6" d="M 244.5,129.5 C 246.167,129.5 247.833,129.5 249.5,129.5C 244.951,148.795 240.618,168.128 236.5,187.5C 258.099,185.301 279.432,181.634 300.5,176.5C 296.883,194.196 293.05,211.863 289,229.5C 288.333,231.5 288.333,233.5 289,235.5C 309.154,230.057 329.654,226.391 350.5,224.5C 351.338,224.842 351.672,225.508 351.5,226.5C 347.392,245.487 343.392,264.487 339.5,283.5C 317.567,286.22 295.9,290.22 274.5,295.5C 278.576,275.453 282.91,255.453 287.5,235.5C 266.442,240.676 245.109,244.343 223.5,246.5C 227.505,227.148 231.505,207.815 235.5,188.5C 215.469,190.9 195.802,189.233 176.5,183.5C 175.194,184.912 174.36,186.579 174,188.5C 170.439,204.87 166.772,221.204 163,237.5C 162.257,239.441 162.424,241.274 163.5,243C 182.865,248.305 202.531,249.805 222.5,247.5C 218.701,267.301 214.367,286.967 209.5,306.5C 197.867,307.603 186.2,307.769 174.5,307C 165.508,306.103 156.841,304.27 148.5,301.5C 153.519,282.069 157.685,262.403 161,242.5C 143.645,236.58 128.478,227.246 115.5,214.5C 119.226,196.82 123.059,179.153 127,161.5C 127.566,159.277 128.4,157.277 129.5,155.5C 142.387,168.612 157.721,177.612 175.5,182.5C 179.318,162.897 183.985,143.564 189.5,124.5C 197.317,126.954 205.317,128.454 213.5,129C 223.828,129.5 234.161,129.666 244.5,129.5 Z"/></g>
<g><path style="opacity:0.995" fill="#e5e6e7" d="M 467.5,265.5 C 464.654,280.221 461.487,294.887 458,309.5C 454.608,315.467 449.774,316.967 443.5,314C 430.701,302.027 416.034,293.194 399.5,287.5C 404.415,268.727 408.915,249.727 413,230.5C 413.561,229.978 414.228,229.645 415,229.5C 436.199,236.214 453.699,248.214 467.5,265.5 Z"/></g>
<g><path style="opacity:1" fill="#2d3039" d="M 274.5,295.5 C 253.039,300.355 231.373,304.021 209.5,306.5C 214.367,286.967 218.701,267.301 222.5,247.5C 202.531,249.805 182.865,248.305 163.5,243C 162.424,241.274 162.257,239.441 163,237.5C 166.772,221.204 170.439,204.87 174,188.5C 174.36,186.579 175.194,184.912 176.5,183.5C 195.802,189.233 215.469,190.9 235.5,188.5C 231.505,207.815 227.505,227.148 223.5,246.5C 245.109,244.343 266.442,240.676 287.5,235.5C 282.91,255.453 278.576,275.453 274.5,295.5 Z"/></g>
</svg>
